<svg xmlns="http://www.w3.org/2000/svg" width="800" height="600" viewBox="0 0 800 600" fill="none">
  <rect width="800" height="600" rx="32" fill="#EFF4FA"/>
  <rect x="40" y="40" width="720" height="520" rx="28" fill="#FFFFFF" stroke="#D7E0EC" stroke-width="4"/>
  <rect x="110" y="110" width="580" height="380" rx="24" fill="url(#g)"/>
  <path d="M330 334C334 254 396 215 468 229C516 238 556 280 562 336C569 397 516 452 454 452C383 452 325 402 330 334Z" fill="#5B7E97" fill-opacity="0.18"/>
  <rect x="247" y="290" width="126" height="170" rx="56" fill="#7DB3D9"/>
  <rect x="208" y="292" width="128" height="160" rx="52" fill="#A8D0E6"/>
  <rect x="330" y="212" width="206" height="184" rx="92" fill="#87B6D9"/>
  <rect x="404" y="242" width="128" height="194" rx="64" fill="#6A8FB5"/>
  <rect x="444" y="210" width="58" height="140" rx="29" fill="#3E5670"/>
  <path d="M198 274C241 226 307 203 376 214" stroke="#2E415A" stroke-width="8" stroke-linecap="round"/>
  <path d="M152 358C233 304 330 295 404 314" stroke="#2E415A" stroke-width="8" stroke-linecap="round"/>
  <path d="M465 424C530 356 590 322 649 318" stroke="#2E415A" stroke-width="8" stroke-linecap="round"/>
  <text x="150" y="210" fill="#1F2937" font-family="Arial, Helvetica, sans-serif" font-size="34" font-weight="700">Potisak laktova prema natrag</text>
  <text x="180" y="290" fill="#4B6A90" font-family="Arial, Helvetica, sans-serif" font-size="24" font-weight="600">Faza 2</text>
  <text x="140" y="350" fill="#5F748F" font-family="Arial, Helvetica, sans-serif" font-size="22">Lokalna slika za ovu vježbu</text>
  <defs>
    <linearGradient id="g" x1="110" y1="110" x2="690" y2="490" gradientUnits="userSpaceOnUse">
      <stop stop-color="#EAF2FB"/>
      <stop offset="1" stop-color="#DCE7F2"/>
    </linearGradient>
  </defs>
</svg>
