<svg xmlns="http://www.w3.org/2000/svg" width="800" height="600" viewBox="0 0 800 600" fill="none">
  <rect width="800" height="600" rx="32" fill="#EEF4FA"/>
  <rect x="40" y="40" width="720" height="520" rx="28" fill="#FFFFFF" stroke="#D9E5F3" stroke-width="4"/>
  <rect x="110" y="110" width="580" height="380" rx="24" fill="url(#g)"/>
  <rect x="184" y="226" width="138" height="208" rx="48" fill="#7CB1D4"/>
  <rect x="232" y="160" width="110" height="212" rx="52" fill="#A6CFE7"/>
  <rect x="332" y="142" width="240" height="280" rx="120" fill="#6C97B8"/>
  <path d="M203 390C248 325 308 289 380 286" stroke="#2E415A" stroke-width="8" stroke-linecap="round"/>
  <path d="M430 423C495 366 568 334 646 328" stroke="#2E415A" stroke-width="8" stroke-linecap="round"/>
  <path d="M211 264C272 214 342 196 404 208" stroke="#2E415A" stroke-width="8" stroke-linecap="round"/>
  <path d="M287 192C331 145 389 127 457 138" stroke="#2E415A" stroke-width="8" stroke-linecap="round"/>
  <text x="150" y="210" fill="#1F2937" font-family="Arial, Helvetica, sans-serif" font-size="34" font-weight="700">Klizanje uz zid</text>
  <text x="180" y="290" fill="#4B6A90" font-family="Arial, Helvetica, sans-serif" font-size="24" font-weight="600">Faza 3</text>
  <text x="140" y="350" fill="#5F748F" font-family="Arial, Helvetica, sans-serif" font-size="22">Lokalna slika za ovu vježbu</text>
  <defs>
    <linearGradient id="g" x1="110" y1="110" x2="690" y2="490" gradientUnits="userSpaceOnUse">
      <stop stop-color="#EDF5FC"/>
      <stop offset="1" stop-color="#DCE8F4"/>
    </linearGradient>
  </defs>
</svg>
